<svg width="139" height="139" viewBox="0 0 139 139" fill="none" xmlns="http://www.w3.org/2000/svg">
<g clip-path="url(#clip0_55_5141)">
<path d="M10.2992 34.9585L10.1602 35.1992L130.99 104.961L131.129 104.72L10.2992 34.9585Z" fill="#E0E0E0"/>
<path d="M117.511 113.316L127.672 107.447L126.54 106.797L116.391 112.671L117.511 113.316Z" fill="#E0E0E0"/>
<path d="M114.124 111.359L124.285 105.493L123.156 104.84L113.004 110.714L114.124 111.359Z" fill="#E0E0E0"/>
<path d="M110.735 109.404L120.896 103.535L119.767 102.885L109.617 108.759L110.735 109.404Z" fill="#E0E0E0"/>
<path d="M107.351 107.447L117.512 101.581L116.38 100.928L106.23 106.802L107.351 107.447Z" fill="#E0E0E0"/>
<path d="M103.96 105.493L114.121 99.624L112.992 98.9707L102.84 104.845L103.96 105.493Z" fill="#E0E0E0"/>
<path d="M100.571 103.537L110.732 97.6681L109.603 97.0176L99.4531 102.892L100.571 103.537Z" fill="#E0E0E0"/>
<path d="M97.1867 101.582L107.348 95.7138L106.216 95.0605L96.0664 100.935L97.1867 101.582Z" fill="#E0E0E0"/>
<path d="M93.7961 99.6246L103.957 93.756L102.828 93.1055L92.6758 98.9796L93.7961 99.6246Z" fill="#E0E0E0"/>
<path d="M90.4066 97.6675L100.568 91.8017L99.4388 91.1484L89.2891 97.0226L90.4066 97.6675Z" fill="#E0E0E0"/>
<path d="M87.0227 95.7125L97.1836 89.8439L96.0549 89.1934L85.9023 95.0675L87.0227 95.7125Z" fill="#E0E0E0"/>
<path d="M83.6321 93.7554L93.793 87.8896L92.6643 87.2363L82.5117 93.1105L83.6321 93.7554Z" fill="#E0E0E0"/>
<path d="M80.2426 91.8012L90.4035 85.9326L89.2748 85.2793L79.125 91.1534L80.2426 91.8012Z" fill="#E0E0E0"/>
<path d="M76.8586 89.8453L87.0195 83.9767L85.8908 83.3262L75.7383 89.2003L76.8586 89.8453Z" fill="#E0E0E0"/>
<path d="M73.468 87.891L83.6289 82.0224L82.5002 81.3691L72.3477 87.2433L73.468 87.891Z" fill="#E0E0E0"/>
<path d="M70.0785 85.9332L80.2394 80.0646L79.1107 79.4141L68.9609 85.2882L70.0785 85.9332Z" fill="#E0E0E0"/>
<path d="M66.6946 83.9761L76.8555 78.1103L75.7268 77.457L65.5742 83.3312L66.6946 83.9761Z" fill="#E0E0E0"/>
<path d="M63.3039 82.021L73.4648 76.1525L72.3362 75.502L62.1836 81.3761L63.3039 82.021Z" fill="#E0E0E0"/>
<path d="M59.9183 80.064L70.0792 74.1982L68.9506 73.5449L58.8008 79.4191L59.9183 80.064Z" fill="#E0E0E0"/>
<path d="M56.5305 78.1098L66.6914 72.2412L65.5627 71.5879L55.4102 77.462L56.5305 78.1098Z" fill="#E0E0E0"/>
<path d="M53.1399 76.1539L63.3008 70.2853L62.1721 69.6348L52.0195 75.5089L53.1399 76.1539Z" fill="#E0E0E0"/>
<path d="M49.7543 74.1996L59.9152 68.331L58.7865 67.6777L48.6367 73.5519L49.7543 74.1996Z" fill="#E0E0E0"/>
<path d="M46.3664 72.2418L56.5273 66.3732L55.3987 65.7227L45.2461 71.5968L46.3664 72.2418Z" fill="#E0E0E0"/>
<path d="M42.9797 70.2847L53.1406 64.4189L52.0119 63.7656L41.8594 69.6398L42.9797 70.2847Z" fill="#E0E0E0"/>
<path d="M39.5902 68.3296L49.7511 62.4611L48.6224 61.8105L38.4727 67.6847L39.5902 68.3296Z" fill="#E0E0E0"/>
<path d="M36.2024 66.3726L46.3633 60.5068L45.2346 59.8535L35.082 65.7277L36.2024 66.3726Z" fill="#E0E0E0"/>
<path d="M32.8157 64.4195L42.9766 58.5509L41.8479 57.9004L31.6953 63.7717L32.8157 64.4195Z" fill="#E0E0E0"/>
<path d="M29.4262 62.4625L39.5871 56.5967L38.4584 55.9434L28.3086 61.8175L29.4262 62.4625Z" fill="#E0E0E0"/>
<path d="M26.0383 60.5082L36.1992 54.6396L35.0705 53.9863L24.918 59.8605L26.0383 60.5082Z" fill="#E0E0E0"/>
<path d="M22.6516 58.5503L32.8125 52.6818L31.6838 52.0312L21.5312 57.9054L22.6516 58.5503Z" fill="#E0E0E0"/>
<path d="M19.2621 56.5961L29.423 50.7275L28.2943 50.0742L18.1445 55.9484L19.2621 56.5961Z" fill="#E0E0E0"/>
<path d="M15.8742 54.6382L26.0351 48.7697L24.9065 48.1191L14.7539 53.9933L15.8742 54.6382Z" fill="#E0E0E0"/>
<path d="M12.4875 52.6812L22.6484 46.8154L21.5197 46.1621L11.3672 52.0363L12.4875 52.6812Z" fill="#E0E0E0"/>
<path d="M9.09803 50.7281L19.2589 44.8595L18.1302 44.209L7.98047 50.0803L9.09803 50.7281Z" fill="#E0E0E0"/>
<path d="M5.71409 48.7711L15.875 42.9053L14.7463 42.252L4.59375 48.1261L5.71409 48.7711Z" fill="#E0E0E0"/>
<path d="M2.32347 46.8148L12.4844 40.9463L11.3557 40.293L1.20312 46.1671L2.32347 46.8148Z" fill="#E0E0E0"/>
<path d="M118.643 113.969L0.0703125 45.5117L0.595733 45.2031L119.171 113.663L118.643 113.969Z" fill="#37474F"/>
<path d="M128.274 108.406L9.70703 39.9512L10.2325 39.6426L128.802 108.1L128.274 108.406Z" fill="#37474F"/>
<path d="M0.139 49.9604L0 50.2012L120.83 119.962L120.969 119.722L0.139 49.9604Z" fill="#E0E0E0"/>
<path d="M3.03516 47.5539C3.11022 40.5094 3.97202 30.4625 4.13048 28.6499L17.8136 20.752C18.0694 23.4541 18.8311 32.0026 18.8561 38.4244L3.03516 47.5539Z" fill="#455A64"/>
<path d="M46.514 36.1312L18.2831 19.832L3.61306 28.3083C3.61306 28.3083 2.48438 40.6959 2.48438 48.5189L30.7153 64.818L47.6538 55.038C47.6427 47.215 46.514 36.1312 46.514 36.1312Z" fill="#E0E0E0"/>
<path d="M30.7758 60.9504C30.7314 62.307 30.7036 63.6164 30.7036 64.8173L2.47266 48.5182C2.47266 47.3172 2.50046 46.0162 2.54494 44.6484L30.7758 60.9504Z" fill="#008753"/>
<path opacity="0.2" d="M30.7758 60.9504C30.7314 62.307 30.7036 63.6164 30.7036 64.8173L2.47266 48.5182C2.47266 47.3172 2.50046 46.0162 2.54494 44.6484L30.7758 60.9504Z" fill="black"/>
<path d="M31.8318 44.6071L46.513 36.1309C46.513 36.1309 47.6417 47.2147 47.6417 55.0349L30.7031 64.8149C30.7031 56.9948 31.8318 44.6071 31.8318 44.6071Z" fill="#E0E0E0"/>
<path opacity="0.2" d="M31.8318 44.6071L46.513 36.1309C46.513 36.1309 47.6417 47.2147 47.6417 55.0349L30.7031 64.8149C30.7031 56.9948 31.8318 44.6071 31.8318 44.6071Z" fill="black"/>
<path d="M31.832 44.6072V43.9539L46.5132 35.4805V36.131L31.832 44.6072Z" fill="#008753"/>
<path d="M3.60132 28.3084V27.6551L18.2825 19.1816V19.8322L3.60132 28.3084Z" fill="#008753"/>
<path d="M31.8322 43.9542L3.60132 27.6551L18.2825 19.1816L46.5134 35.4808L31.8322 43.9542Z" fill="#008753"/>
<path opacity="0.3" d="M31.8322 43.9542L3.60132 27.6551L18.2825 19.1816L46.5134 35.4808L31.8322 43.9542Z" fill="white"/>
<path d="M31.8325 43.9534V44.6067L3.60156 28.3076V27.6543L31.8325 43.9534Z" fill="#008753"/>
<path opacity="0.15" d="M31.8325 43.9534V44.6067L3.60156 28.3076V27.6543L31.8325 43.9534Z" fill="white"/>
<path d="M30.3018 45.0306C30.0878 47.5326 29.6179 53.3984 29.3983 58.8528L3.91406 44.1327C4.14202 38.6172 4.6174 32.7013 4.82034 30.3105L30.3018 45.0306Z" fill="#37474F"/>
<path d="M5.05078 43.5126C5.23982 39.2786 5.5623 34.8946 5.78192 32.1562L29.1339 45.6392C28.9393 47.98 28.5779 52.4391 28.3694 56.9733L5.05078 43.5126Z" fill="#455A64"/>
<path d="M10.9922 48.2245L12.41 49.0418C12.6352 43.5485 13.1078 37.6438 13.3135 35.2224L11.8985 34.4023C11.6927 36.8237 11.2174 42.7257 10.9922 48.2245Z" fill="#37474F"/>
<path d="M19.6406 53.2173L21.0556 54.0346C21.2808 48.5385 21.7562 42.6366 21.9619 40.2124L20.5469 39.4062C20.3412 41.8165 19.8658 47.7184 19.6406 53.2173Z" fill="#37474F"/>
<path d="M12.6367 38.7383V39.2943L29.5753 49.0743V48.5183L12.6367 38.7383Z" fill="#37474F"/>
<path d="M5.66364 31.9258L5.64418 32.1454C5.45792 34.4889 5.11042 39.0954 4.91304 43.5073C4.72122 47.0935 4.72678 47.9553 4.73234 48.8727C4.73234 49.0339 4.73234 49.1951 4.73234 49.3758V49.4537L10.9734 53.0677V52.8314C10.9734 52.8036 11.0124 50.0875 11.1819 46.9934C11.3765 42.8484 11.6962 38.5394 11.9298 35.6538V35.5676L5.66364 31.9258ZM5.01034 48.8838C5.01034 47.9719 5.01034 47.1129 5.19104 43.5323C5.38286 39.2483 5.71368 34.8031 5.9055 32.4123L8.51313 33.919C8.33799 36.2626 7.98216 40.7968 7.782 45.1669C7.59018 48.7559 7.59573 49.6149 7.60129 50.5323C7.60129 50.6185 7.60129 50.7075 7.60129 50.7964L5.002 49.2952C5.002 49.1368 5.002 49.0089 5.002 48.8727L5.01034 48.8838ZM10.9095 46.9767C10.7705 49.5593 10.7205 51.8723 10.7066 52.6006L7.88763 50.9688C7.88763 50.8214 7.88763 50.6908 7.88763 50.5434C7.88763 49.6316 7.88763 48.7726 8.06833 45.1892C8.26015 40.8996 8.59097 36.4572 8.78279 34.0692L11.6545 35.7372C11.4182 38.5922 11.1013 42.8595 10.9095 46.9656V46.9767Z" fill="#263238"/>
<path d="M36.3489 32.0982L23.9279 24.9258L20.5391 26.8829V27.1275L32.9601 34.2999L36.3489 32.3428V32.0982Z" fill="#008753"/>
<path d="M20.5391 26.8829L32.9601 34.0553L36.3489 32.0982L23.9279 24.9258L20.5391 26.8829Z" fill="#008753"/>
<path opacity="0.3" d="M20.5391 26.8818L32.9601 34.0542L36.3489 32.0971L23.9279 25.0137L20.5391 26.8818Z" fill="white"/>
<path opacity="0.15" d="M20.5391 26.8828L32.9601 34.0552V34.2999L20.5391 27.1275V26.8828Z" fill="black"/>
<path d="M32.9609 34.0545L36.3498 32.0974V32.342L32.9609 34.2992V34.0545Z" fill="#008753"/>
<path d="M32.9594 34.0572L20.5384 26.8848L17.1523 28.8419V29.4924L29.5734 36.2561L32.9594 34.3018V34.0572Z" fill="#EBEBEB"/>
<path d="M17.1523 28.8419L29.5734 36.0143L32.9594 34.0572L20.5384 26.8848L17.1523 28.8419Z" fill="#008753"/>
<path opacity="0.6" d="M17.1523 28.8419L29.5734 36.0143L32.9594 34.0572L20.5384 26.8848L17.1523 28.8419Z" fill="white"/>
<path d="M29.5742 36.0138L32.9603 34.0566V34.3013L29.5742 36.2556V36.0138Z" fill="#008753"/>
<path opacity="0.3" d="M29.5742 36.0138L32.9603 34.0566V34.3013L29.5742 36.2556V36.0138Z" fill="white"/>
<path d="M29.5755 36.0095L17.1517 28.8398L13.7656 30.7942V31.0388L26.1867 38.2112L29.5755 36.2541V36.0095Z" fill="#008753"/>
<path d="M13.7656 30.7942L26.1867 37.9666L29.5755 36.0095L17.1517 28.8398L13.7656 30.7942Z" fill="#008753"/>
<path opacity="0.3" d="M13.9414 30.7942L26.1873 37.9666L29.5761 36.0095L17.1523 28.8398L13.9414 30.7942Z" fill="white"/>
<path opacity="0.15" d="M13.7656 30.793L26.1867 37.9654V38.21L13.7656 31.0376V30.793Z" fill="white"/>
<path d="M26.1875 37.9669L29.5763 36.0098V36.2544L26.1875 38.2115V37.9669Z" fill="#008753"/>
<path d="M29.3415 35.1924L31.5516 33.9192C31.6851 33.8413 31.7546 33.7579 31.7073 33.7301C31.5905 33.7207 31.4742 33.7532 31.3793 33.8219L29.1692 35.0951C29.0357 35.1729 28.9662 35.2563 29.0163 35.2841C29.0663 35.3119 29.2109 35.2702 29.3415 35.1924Z" fill="#455A64"/>
<path d="M28.378 34.6363L30.5881 33.3631C30.7216 33.2852 30.7911 33.2018 30.7438 33.174C30.6273 33.163 30.5107 33.1946 30.4158 33.263L28.2057 34.539C28.0722 34.6141 28.0027 34.6975 28.05 34.7253C28.1666 34.7376 28.2836 34.7059 28.378 34.6363Z" fill="#455A64"/>
<path d="M27.4104 34.0771L29.6205 32.8039C29.7539 32.726 29.8234 32.6426 29.7734 32.6148C29.6566 32.6056 29.5404 32.6381 29.4453 32.7065L27.2408 33.9798C27.1074 34.0576 27.0379 34.141 27.0851 34.1688C27.201 34.1776 27.3162 34.1451 27.4104 34.0771Z" fill="#455A64"/>
<path d="M26.4484 33.5214L28.6724 32.2454C28.8058 32.1703 28.8753 32.0869 28.8253 32.0591C28.7087 32.0471 28.5917 32.0788 28.4972 32.1481L26.2732 33.4213C26.1426 33.4992 26.0731 33.5826 26.1203 33.6104C26.1676 33.6382 26.3149 33.5965 26.4484 33.5214Z" fill="#455A64"/>
<path d="M25.4838 32.9611L27.7078 31.6879C27.8413 31.6101 27.908 31.5267 27.8607 31.4989C27.8135 31.4711 27.6661 31.5128 27.5327 31.5906L25.3087 32.8638C25.1752 32.9417 25.1085 33.0251 25.1558 33.0529C25.2725 33.0621 25.3888 33.0296 25.4838 32.9611Z" fill="#455A64"/>
<path d="M24.5162 32.4062L26.7402 31.1302C26.8736 31.0551 26.9403 30.9689 26.8931 30.9439C26.7765 30.9319 26.6596 30.9636 26.565 31.0329L24.341 32.3061C24.2076 32.384 24.1381 32.4674 24.1881 32.4952C24.2382 32.523 24.3827 32.4813 24.5162 32.4062Z" fill="#455A64"/>
<path d="M23.5552 31.8472L25.7792 30.5739C25.9099 30.4961 25.9794 30.4127 25.9321 30.3849C25.8157 30.3741 25.6992 30.4057 25.6041 30.4738L23.3801 31.7499C23.2467 31.8249 23.1772 31.9111 23.2272 31.9361C23.3438 31.9482 23.4607 31.9165 23.5552 31.8472Z" fill="#455A64"/>
<path d="M22.585 31.2911L24.809 30.015C24.9425 29.94 25.012 29.8538 24.9647 29.8288C24.8481 29.8165 24.7311 29.8482 24.6367 29.9177L22.4127 31.191C22.2792 31.2688 22.2097 31.3522 22.257 31.38C22.3735 31.391 22.4901 31.3594 22.585 31.2911Z" fill="#455A64"/>
<path d="M21.6202 30.7324L23.8442 29.4591C23.9776 29.3813 24.0471 29.2979 23.9971 29.2701C23.9471 29.2423 23.8025 29.2701 23.6718 29.3591L21.4478 30.6351C21.3144 30.7101 21.2449 30.7963 21.2922 30.8213C21.4088 30.8337 21.5258 30.8019 21.6202 30.7324Z" fill="#455A64"/>
<path d="M20.6571 30.1757L22.8811 28.8997C23.0145 28.8246 23.084 28.7385 23.034 28.7134C22.9174 28.7014 22.8005 28.7331 22.706 28.8024L20.4959 30.0756C20.3652 30.1535 20.2957 30.2369 20.343 30.2647C20.3902 30.2925 20.5237 30.2508 20.6571 30.1757Z" fill="#455A64"/>
<path d="M19.6908 29.6171L21.9148 28.3439C22.0483 28.2661 22.115 28.1827 22.0677 28.1549C22.0205 28.1271 21.8731 28.1549 21.7397 28.2438L19.5157 29.5199C19.3823 29.5949 19.3155 29.6811 19.3628 29.7061C19.4794 29.7182 19.5963 29.6865 19.6908 29.6171Z" fill="#455A64"/>
<path d="M18.7254 29.0595L20.9355 27.7863C21.0689 27.7084 21.1356 27.625 21.0884 27.5972C20.9716 27.588 20.8554 27.6205 20.7603 27.689L18.5363 28.9622C18.4029 29.0401 18.3334 29.1235 18.3834 29.1513C18.4335 29.1791 18.5919 29.1374 18.7254 29.0595Z" fill="#455A64"/>
<path d="M49.9 56.3456C49.8749 49.9238 49.1132 41.3753 48.8575 38.6732L46.0441 37.0469L32.3609 44.9449C32.2025 46.763 31.3407 56.8099 31.2656 63.8489L34.079 65.4724L49.9 56.3456Z" fill="#37474F"/>
<path d="M32.3594 44.9449L35.1727 46.5712L48.8559 38.6732L46.0425 37.0469L32.3594 44.9449Z" fill="#455A64"/>
<path d="M34.0781 65.4778C34.156 58.436 35.015 48.3891 35.1762 46.5738L48.8566 38.6758C49.1124 41.3779 49.8741 49.9264 49.8991 56.3482L34.0781 65.4778Z" fill="#263238"/>
<path d="M34.0781 65.4766C34.156 58.4349 35.015 48.388 35.1762 46.5726L48.8566 38.6719C49.1124 41.3768 49.8741 49.9253 49.8991 56.3471L34.0781 65.4766Z" fill="#455A64"/>
<path d="M77.5592 54.0569L49.3255 37.7578L34.6471 46.234C34.6471 46.234 33.5156 58.6217 33.5156 66.4446L61.7465 82.7438L78.6851 72.9637C78.6851 65.1408 77.5592 54.0569 77.5592 54.0569Z" fill="#E0E0E0"/>
<path d="M61.8188 78.8817C61.7743 80.2383 61.7465 81.5477 61.7465 82.7487L33.5156 66.444C33.5156 65.243 33.5434 63.942 33.5879 62.5742L61.8188 78.8817Z" fill="#008753"/>
<path opacity="0.2" d="M61.8188 78.8817C61.7743 80.2383 61.7465 81.5477 61.7465 82.7487L33.5156 66.444C33.5156 65.243 33.5434 63.942 33.5879 62.5742L61.8188 78.8817Z" fill="black"/>
<path d="M62.8759 62.5329L77.5599 54.0566C77.5599 54.0566 78.6885 65.1405 78.6885 72.9606L61.75 82.7407C61.7472 74.9205 62.8759 62.5329 62.8759 62.5329Z" fill="#E0E0E0"/>
<path opacity="0.2" d="M62.8759 62.5329L77.5599 54.0566C77.5599 54.0566 78.6885 65.1405 78.6885 72.9606L61.75 82.7407C61.7472 74.9205 62.8759 62.5329 62.8759 62.5329Z" fill="black"/>
<path d="M62.8789 62.5338V61.8805L77.5573 53.4043V54.0576L62.8789 62.5338Z" fill="#008753"/>
<path d="M34.6445 46.233V45.5797L49.3257 37.1035V37.7568L34.6445 46.233Z" fill="#008753"/>
<path d="M62.8782 61.8789L34.6445 45.5797L49.3257 37.1035L77.5566 53.4027L62.8782 61.8789Z" fill="#008753"/>
<path opacity="0.3" d="M62.8782 61.8789L34.6445 45.5797L49.3257 37.1035L77.5566 53.4027L62.8782 61.8789Z" fill="white"/>
<path d="M62.8782 61.8792V62.5325L34.6445 46.2334V45.5801L62.8782 61.8792Z" fill="#008753"/>
<path opacity="0.15" d="M62.8782 61.8792V62.5325L34.6445 46.2334V45.5801L62.8782 61.8792Z" fill="white"/>
<path d="M61.3504 62.9548C61.1363 65.4568 60.6665 71.3226 60.4469 76.7769L34.957 62.0624C35.185 56.5469 35.6604 50.631 35.8633 48.2402L61.3504 62.9548Z" fill="#37474F"/>
<path d="M36.0977 61.4383C36.2867 57.2044 36.612 52.8203 36.8288 50.082L60.1808 63.565C59.9862 65.9058 59.6248 70.3649 59.4163 74.8991L36.0977 61.4383Z" fill="#455A64"/>
<path d="M42.0391 66.1503L43.4569 66.9676C43.682 61.4715 44.1546 55.5696 44.3631 53.1454L42.9453 52.3281C42.7396 54.7495 42.2559 60.6514 42.0391 66.1503Z" fill="#37474F"/>
<path d="M50.6833 71.1427L52.1011 71.96C52.3263 66.464 52.7989 60.562 53.0074 58.1379L51.5896 57.3206C51.3839 59.7392 50.9085 65.6411 50.6833 71.1427Z" fill="#37474F"/>
<path d="M43.6797 56.6641V57.2201L60.6182 66.9973V66.4441L43.6797 56.6641Z" fill="#37474F"/>
<path d="M36.7077 49.8516L36.6911 50.0712C36.502 52.4147 36.1573 57.0073 35.9571 61.4303C35.7681 65.0192 35.7737 65.8783 35.7792 66.7984V67.3795L42.0203 70.9935V70.7544C42.0203 70.7294 42.0592 68.0133 42.226 64.9164C42.4206 60.7714 42.7403 56.4624 42.9739 53.5768V53.4878L36.7077 49.8516ZM36.0572 66.7957C36.0572 65.8866 36.0572 65.0248 36.2351 61.4442C36.427 57.1602 36.7578 52.715 36.9496 50.3242L39.5572 51.8281C39.3682 54.1967 39.029 58.7309 38.8317 63.101C38.6426 66.69 38.6482 67.549 38.6537 68.4692V68.7333L36.0572 67.2321V66.7957ZM41.9564 64.8914C41.8146 67.474 41.7646 69.7869 41.7507 70.5153L38.9317 68.8751V68.4581C38.9317 67.5463 38.9317 66.6872 39.1097 63.1038C39.3015 58.8143 39.6323 54.3718 39.8241 51.9838L42.6959 53.6518C42.4623 56.518 42.1482 60.7853 41.9564 64.8914Z" fill="#263238"/>
<path d="M67.3958 50.022L54.9748 42.8496L51.5859 44.8067V45.0514L64.0098 52.221L67.3958 50.2667V50.022Z" fill="#008753"/>
<path d="M51.5859 44.8067L64.0098 51.9791L67.3958 50.022L54.9748 42.8496L51.5859 44.8067Z" fill="#008753"/>
<path opacity="0.3" d="M51.5859 44.8076L64.0098 51.98L67.3958 50.0229L54.9748 42.9395L51.5859 44.8076Z" fill="white"/>
<path opacity="0.15" d="M51.5859 44.8086L64.0098 51.981V52.2229L51.5859 45.0532V44.8086Z" fill="black"/>
<path d="M64.0078 51.9806L67.3939 50.0234V50.2681L64.0078 52.2224V51.9806Z" fill="#008753"/>
<path d="M64.0091 51.9829L51.5853 44.8105L48.1992 46.7677V47.4182L60.6203 54.1819L64.0091 52.2276V51.9829Z" fill="#EBEBEB"/>
<path d="M48.1992 46.7677L60.6203 53.9373L64.0091 51.9829L51.5853 44.8105L48.1992 46.7677Z" fill="#008753"/>
<path opacity="0.6" d="M48.1992 46.7677L60.6203 53.9373L64.0091 51.9829L51.5853 44.8105L48.1992 46.7677Z" fill="white"/>
<path d="M60.6172 53.9368L64.006 51.9824V52.2271L60.6172 54.1814V53.9368Z" fill="#008753"/>
<path opacity="0.3" d="M60.6172 53.9368L64.006 51.9824V52.2271L60.6172 54.1814V53.9368Z" fill="white"/>
<path d="M60.6185 53.9341L48.1974 46.7617L44.8086 48.7188V48.9635L57.2296 56.1359L60.6185 54.1788V53.9341Z" fill="#008753"/>
<path d="M44.8086 48.7188L57.2296 55.8912L60.6185 53.9341L48.1974 46.7617L44.8086 48.7188Z" fill="#008753"/>
<path opacity="0.3" d="M44.9844 48.7188L57.2303 55.8912L60.6191 53.9341L48.1981 46.7617L44.9844 48.7188Z" fill="white"/>
<path opacity="0.15" d="M44.8086 48.7188L57.2296 55.8912V56.1358L44.8086 48.9634V48.7188Z" fill="white"/>
<path d="M57.2305 55.8907L60.6193 53.9336V54.1782L57.2305 56.1354V55.8907Z" fill="#008753"/>
<path d="M60.3901 53.1174L62.6141 51.8442C62.7475 51.7663 62.8142 51.6829 62.767 51.6551C62.7197 51.6273 62.5724 51.669 62.4389 51.7441L60.2149 53.0201C60.0815 53.0952 60.0148 53.1814 60.062 53.2092C60.1788 53.2184 60.295 53.1859 60.3901 53.1174Z" fill="#455A64"/>
<path d="M59.4224 52.5605L61.6325 51.2845C61.7632 51.2094 61.8327 51.1232 61.7854 51.0982C61.6688 51.0862 61.5519 51.1179 61.4574 51.1872L59.2473 52.4715C59.1138 52.5494 59.0443 52.6328 59.0944 52.6606C59.1444 52.6884 59.289 52.6356 59.4224 52.5605Z" fill="#455A64"/>
<path d="M58.4544 52.0014L60.6645 50.7282C60.798 50.6504 60.8675 50.567 60.8202 50.5392C60.7037 50.5284 60.5872 50.56 60.4922 50.6281L58.2682 51.9042C58.1347 51.9792 58.0652 52.0654 58.1125 52.0904C58.2337 52.1067 58.3565 52.0747 58.4544 52.0014Z" fill="#455A64"/>
<path d="M57.4913 51.4454L59.7014 50.1694C59.8348 50.0944 59.9043 50.0082 59.8571 49.9832C59.7404 49.9706 59.6233 50.0023 59.529 50.0721L57.3189 51.3593C57.1855 51.4371 57.116 51.5205 57.1633 51.5483C57.2815 51.5551 57.3981 51.5185 57.4913 51.4454Z" fill="#455A64"/>
<path d="M56.5265 50.887L58.7366 49.6137C58.87 49.5359 58.9395 49.4525 58.8895 49.4247C58.8394 49.3969 58.6949 49.4386 58.5614 49.5136L56.3513 50.8036C56.2207 50.8786 56.1512 50.9648 56.1984 50.9898C56.3168 50.9979 56.4339 50.9612 56.5265 50.887Z" fill="#455A64"/>
<path d="M55.5619 50.329L57.772 49.0558C57.9055 48.978 57.975 48.8946 57.9249 48.8668C57.8082 48.8576 57.6919 48.8901 57.5969 48.9585L55.3868 50.2317C55.2534 50.3096 55.1866 50.393 55.2339 50.4208C55.2812 50.4486 55.4285 50.4069 55.5619 50.329Z" fill="#455A64"/>
<path d="M54.5971 49.7737L56.8072 48.5004C56.9406 48.4226 57.0074 48.3392 56.9601 48.3114C56.9128 48.2836 56.7655 48.3253 56.6321 48.4004L54.422 49.6764C54.2885 49.7514 54.2218 49.8348 54.2691 49.8626C54.3856 49.8747 54.5026 49.843 54.5971 49.7737Z" fill="#455A64"/>
<path d="M53.6334 49.2138L55.8435 47.9406C55.9741 47.8627 56.0436 47.7793 55.9964 47.7515C55.8796 47.7423 55.7634 47.7748 55.6683 47.8433L53.4582 49.1165C53.3248 49.1943 53.2553 49.2778 53.3053 49.3056C53.4221 49.3148 53.5383 49.2822 53.6334 49.2138Z" fill="#455A64"/>
<path d="M52.6675 48.6577L54.8915 47.3817C55.0249 47.3066 55.0944 47.2232 55.0471 47.1954C54.9307 47.1847 54.8142 47.2162 54.7191 47.2844L52.509 48.5604C52.3756 48.6355 52.3061 48.7189 52.3561 48.7467C52.4061 48.7745 52.5424 48.7328 52.6675 48.6577Z" fill="#455A64"/>
<path d="M51.7079 48.0987L53.9319 46.8255C54.0653 46.7476 54.1348 46.6642 54.0875 46.6364C53.9707 46.6267 53.8543 46.6593 53.7595 46.7282L51.5494 48.0014C51.416 48.0793 51.3465 48.1627 51.3937 48.1905C51.5058 48.1966 51.6167 48.1643 51.7079 48.0987Z" fill="#455A64"/>
<path d="M50.7352 47.5429L52.9592 46.2669C53.0926 46.1918 53.1621 46.1057 53.1121 46.0806C52.9955 46.0686 52.8786 46.1003 52.7841 46.1696L50.5767 47.4428C50.4433 47.5207 50.3738 47.6041 50.4211 47.6319C50.5329 47.6393 50.6439 47.6079 50.7352 47.5429Z" fill="#455A64"/>
<path d="M49.7609 46.9846L51.9849 45.7114C52.1183 45.6335 52.1878 45.5501 52.1378 45.5223C52.0877 45.4945 51.9432 45.5362 51.8097 45.6113L49.5857 46.8873C49.4551 46.9624 49.3856 47.0485 49.4328 47.0763C49.5496 47.0855 49.6658 47.053 49.7609 46.9846Z" fill="#455A64"/>
<path d="M80.9429 74.2706C80.9179 67.8488 80.159 59.3003 79.9004 56.5953L77.0871 54.9746L63.4067 62.8698C63.2454 64.6879 62.3864 74.7348 62.3086 81.7738L65.122 83.4001L80.9429 74.2706Z" fill="#37474F"/>
<path d="M63.4062 62.8687L66.2196 64.495L79.9 56.5942L77.0866 54.9707L63.4062 62.8687Z" fill="#455A64"/>
<path d="M65.1211 83.4024C65.1989 76.3607 66.0579 66.3138 66.2192 64.4984L79.8996 56.5977C80.1581 59.3026 80.9171 67.8511 80.9421 74.2729L65.1211 83.4024Z" fill="#263238"/>
<path d="M65.125 83.4024C65.2001 76.3607 66.0591 66.3138 66.2203 64.4984L79.9007 56.5977C80.1592 59.3026 80.9182 67.8511 80.9432 74.2729L65.125 83.4024Z" fill="#455A64"/>
<path d="M118.211 97.3274C118.21 94.5908 117.625 91.8859 116.496 89.3933L112.618 80.8281C110.006 75.0668 105.656 70.2682 100.177 67.106L80.3696 55.6719L65.6912 64.1481C65.6912 64.1481 64.5625 76.5358 64.5625 84.3587L86.3466 96.9521C90.6291 99.424 95.2058 101.347 99.9686 102.676L105.059 104.099C106.722 104.565 108.462 104.693 110.176 104.477C111.89 104.261 113.543 103.704 115.039 102.84C116.005 102.28 116.807 101.476 117.363 100.509C117.92 99.541 118.213 98.4438 118.211 97.3274Z" fill="#E0E0E0"/>
<path d="M117.977 94.3474C117.855 93.581 117.688 92.8226 117.476 92.0762L115.163 95.9849L105.789 96.6326C105.789 96.6326 106.921 98.4757 107.21 99.0429C113.701 99.0929 117.12 97.7641 117.977 94.3474Z" fill="#263238"/>
<path d="M107.008 97.4432C107.014 97.5526 107.044 97.6592 107.097 97.7553C107.149 97.8515 107.222 97.9348 107.311 97.9992C107.587 98.1843 107.897 98.3125 108.223 98.3765C108.549 98.4404 108.884 98.4388 109.21 98.3718C109.488 98.3245 109.802 98.1688 109.83 97.888C109.888 97.2792 108.743 97.054 108.326 96.979C107.909 96.9039 107.077 96.8789 107.008 97.4432Z" fill="#FAFAFA"/>
<path d="M110.83 98.3978C110.957 98.3755 111.016 98.3366 111.044 98.2865C111.062 98.2398 111.067 98.1887 111.057 98.1394C111.047 98.09 111.023 98.0446 110.988 98.0085C110.908 97.903 110.801 97.8212 110.678 97.7722C110.555 97.7232 110.421 97.7088 110.29 97.7305C110.25 97.7376 110.212 97.7525 110.178 97.7743C110.144 97.7962 110.114 97.8246 110.091 97.8579C110.067 97.8912 110.051 97.9288 110.042 97.9685C110.034 98.0082 110.033 98.0492 110.04 98.0892C110.085 98.4172 110.552 98.4478 110.83 98.3978Z" fill="#FAFAFA"/>
<path d="M117.952 94.1714C117.862 94.2296 117.757 94.2594 117.649 94.2569C117.542 94.2544 117.439 94.2198 117.351 94.1575C116.862 93.7961 117.185 93.0455 117.318 92.787C117.386 92.6571 117.475 92.5397 117.582 92.4395C117.955 92.9732 117.977 93.7266 117.952 94.1714Z" fill="#FAFAFA"/>
<path d="M117.467 95.0841C117.436 95.1326 117.387 95.1674 117.331 95.1813C117.276 95.1953 117.216 95.1873 117.166 95.1591C117.086 95.1072 117.028 95.0267 117.005 94.9339C116.949 94.7032 116.955 94.4975 117.105 94.3918C117.165 94.3567 117.233 94.341 117.302 94.3469C117.371 94.3529 117.436 94.3803 117.489 94.4252C117.719 94.5864 117.594 94.9367 117.467 95.0841Z" fill="#FAFAFA"/>
<path d="M118.109 98.4505C117.87 100.08 114.987 103.454 109.636 103.34C104.284 103.227 99.7584 100.669 92.8668 96.8019L64.6359 80.5C64.5914 81.8539 64.5664 83.1605 64.5664 84.3614L86.3477 96.952C90.6303 99.4239 95.2069 101.347 99.9697 102.676L105.06 104.099C106.724 104.564 108.463 104.692 110.177 104.476C111.891 104.26 113.544 103.704 115.04 102.84C115.841 102.377 116.531 101.745 117.063 100.988C117.594 100.23 117.954 99.3665 118.118 98.456L118.109 98.4505Z" fill="#008753"/>
<path opacity="0.2" d="M118.109 98.4505C117.87 100.08 114.987 103.454 109.636 103.34C104.284 103.227 99.7584 100.669 92.8668 96.8019L64.6359 80.5C64.5914 81.8539 64.5664 83.1605 64.5664 84.3614L86.3477 96.952C90.6303 99.4239 95.2069 101.347 99.9697 102.676L105.06 104.099C106.724 104.564 108.463 104.692 110.177 104.476C111.891 104.26 113.544 103.704 115.04 102.84C115.841 102.377 116.531 101.745 117.063 100.988C117.594 100.23 117.954 99.3665 118.118 98.456L118.109 98.4505Z" fill="black"/>
<path d="M65.6914 64.1588V63.5055L80.3698 55.0293V55.6826L65.6914 64.1588Z" fill="#008753"/>
<path d="M100.803 66.8332L80.3698 55.0293L65.6914 63.5055L86.1244 75.3094C91.3286 78.3035 97.8838 81.9202 106.919 97.0851L115.162 95.9731L117.477 92.0617C110.488 72.4154 105.159 69.4297 100.803 66.8332Z" fill="#008753"/>
<path opacity="0.3" d="M100.803 66.8332L80.3698 55.0293L65.6914 63.5055L86.1244 75.3094C91.3286 78.3035 97.8838 81.9202 106.919 97.0851L115.162 95.9731L117.477 92.0617C110.488 72.4154 105.159 69.4297 100.803 66.8332Z" fill="white"/>
<path d="M116.251 91.9491L114.48 94.9487L107.252 95.4241C102.184 87.0313 98.1225 82.675 94.3945 79.5308C100.269 77.5237 104.155 75.2107 106.349 72.6309C109.217 75.9085 112.478 81.4518 116.251 91.9491Z" fill="#37474F"/>
<path d="M115.646 91.8982L114.145 94.4419L107.553 94.8311C105.308 91.0726 102.739 87.5174 99.875 84.206C103.681 82.6603 107.05 80.8144 109.741 78.5098C111.712 81.9931 113.667 86.43 115.646 91.8982Z" fill="#455A64"/>
<path d="M86.125 75.3105V75.9638C91.3292 78.9579 98.7156 84.529 105.788 96.6332L106.919 97.0863C97.8844 81.9214 91.3292 78.3046 86.125 75.3105Z" fill="#008753"/>
<path opacity="0.15" d="M86.125 75.3105V75.9638C91.3292 78.9579 98.7156 84.529 105.788 96.6332L106.919 97.0863C97.8844 81.9214 91.3292 78.3046 86.125 75.3105Z" fill="white"/>
<path d="M86.1244 75.3097V75.963L65.6914 64.1592V63.5059L86.1244 75.3097Z" fill="#008753"/>
<path opacity="0.15" d="M86.1244 75.3097V75.963L65.6914 64.1592V63.5059L86.1244 75.3097Z" fill="white"/>
<path d="M91.5367 94.728L66.0469 79.994C66.2748 74.4785 66.7502 68.5627 66.9532 66.1719L86.6912 77.5699C90.7333 79.9051 94.4057 82.7351 97.3636 86.3491C99.8179 89.3442 102.059 92.5083 104.069 95.8178L97.3969 98.1196L91.5367 94.728Z" fill="#37474F"/>
<path d="M96.0703 86.0039C96.0703 86.0039 96.3817 88.2279 97.5604 97.085L102.759 95.3169C102.759 95.3169 99.0143 89.515 96.0703 86.0039Z" fill="#455A64"/>
<path opacity="0.1" d="M96.0703 86.0039C96.0703 86.0039 96.3817 88.2279 97.5604 97.085L102.759 95.3169C102.759 95.3169 99.0143 89.515 96.0703 86.0039Z" fill="white"/>
<path d="M96.0687 86.0051C95.1291 85.0654 92.4547 82.7441 92.4547 82.7441C92.4547 82.7441 91.7541 90.934 91.668 93.4972L97.5643 97.0862L96.0687 86.0051Z" fill="#455A64"/>
<path d="M67.2422 79.4598C67.4312 75.2259 67.7537 70.8418 67.9705 68.1035L91.3225 81.5893C91.1252 83.93 90.7665 88.3864 90.5553 92.9234L67.2422 79.4598Z" fill="#455A64"/>
<path d="M82.9727 89.7733L84.3877 90.5907C84.6129 85.0946 85.0882 79.1927 85.294 76.7685L83.8789 75.9512C83.676 78.3726 83.1978 84.2745 82.9727 89.7733Z" fill="#37474F"/>
<path d="M74.3594 84.8068L75.7772 85.6241C76.0024 80.1308 76.4777 74.2261 76.6835 71.8047L75.2684 70.9707C75.0572 73.406 74.5873 79.3079 74.3594 84.8068Z" fill="#37474F"/>
<path d="M67.582 70.4531V71.0091L84.5206 80.7892V80.2332L67.582 70.4531Z" fill="#37474F"/>
<path d="M85.0671 77.7695L85.0504 77.9864C84.8614 80.3327 84.5167 84.9364 84.3193 89.3482C84.1275 92.9372 84.133 93.7962 84.1386 94.7164C84.1386 94.8749 84.1386 95.0389 84.1386 95.2168V95.2835L90.3797 98.8975V98.6585C90.3797 98.6307 90.4186 95.9174 90.5882 92.8205C90.7828 88.6727 91.1025 84.3637 91.336 81.4781V81.3919L85.0671 77.7695ZM84.4166 94.7136C84.4166 93.8018 84.4166 92.9428 84.5973 89.3621C84.7891 85.0754 85.1199 80.6301 85.309 78.2282L87.9194 79.735C87.7276 82.1036 87.3884 86.6377 87.1938 91.0079C87.002 94.5969 87.0075 95.4559 87.0131 96.3761C87.0131 96.4622 87.0131 96.5484 87.0131 96.6541L84.4166 95.1501C84.4166 94.9805 84.4166 94.8415 84.4138 94.7053L84.4166 94.7136ZM90.3157 92.8093C90.174 95.392 90.1239 97.7049 90.1128 98.4333L87.2911 96.7931C87.2911 96.6429 87.2911 96.5012 87.2911 96.365C87.2911 95.4559 87.2911 94.5941 87.4718 91.0135C87.6636 86.7239 87.9944 82.2815 88.1835 79.8796L91.058 81.5476C90.8217 84.4249 90.5048 88.6922 90.313 92.801L90.3157 92.8093Z" fill="#263238"/>
<path d="M96.6497 66.906L84.2259 59.7363L80.8398 61.6907V61.9353L93.2609 69.1077L96.6497 67.1506V66.906Z" fill="#008753"/>
<path d="M80.8398 61.6907L93.2609 68.8631L96.6497 66.906L84.2259 59.7363L80.8398 61.6907Z" fill="#008753"/>
<path opacity="0.3" d="M80.8398 61.6916L93.2609 68.864L96.6497 66.9068L84.2259 59.8262L80.8398 61.6916Z" fill="white"/>
<path opacity="0.15" d="M80.8398 61.6914L93.2609 68.8638V69.1084L80.8398 61.936V61.6914Z" fill="black"/>
<path d="M93.2578 68.8634L96.6466 66.9062V67.1509L93.2578 69.108V68.8634Z" fill="#008753"/>
<path d="M93.2591 68.8658L80.838 61.6934L77.4492 63.6505V64.3038L89.8703 71.0647L93.2591 69.1104V68.8658Z" fill="#EBEBEB"/>
<path d="M77.4492 63.6505L89.8703 70.8229L93.2591 68.8658L80.838 61.6934L77.4492 63.6505Z" fill="#008753"/>
<path opacity="0.6" d="M77.4492 63.6505L89.8703 70.8229L93.2591 68.8658L80.838 61.6934L77.4492 63.6505Z" fill="white"/>
<path d="M89.8711 70.8224L93.2599 68.8652V69.1099L89.8711 71.0642V70.8224Z" fill="#008753"/>
<path opacity="0.3" d="M89.8711 70.8224L93.2599 68.8652V69.1099L89.8711 71.0642V70.8224Z" fill="white"/>
<path d="M89.8724 70.8208L77.4485 63.6484L74.0625 65.6028V65.8474L86.4835 73.0198L89.8724 71.0627V70.8208Z" fill="#008753"/>
<path d="M74.0625 65.6028L86.4835 72.7752L89.8724 70.8208L77.4485 63.6484L74.0625 65.6028Z" fill="#008753"/>
<path opacity="0.3" d="M74.2344 65.6028L86.4831 72.7752L89.8719 70.8208L77.4481 63.6484L74.2344 65.6028Z" fill="white"/>
<path opacity="0.15" d="M74.0625 65.6016L86.4835 72.774V73.0186L74.0625 65.8462V65.6016Z" fill="white"/>
<path d="M86.4844 72.7744L89.8732 70.8201V71.0619L86.4844 73.019V72.7744Z" fill="#008753"/>
<path d="M89.6397 70.0037L91.8498 68.7277C91.9833 68.6498 92.0528 68.5664 92.0027 68.5386C91.886 68.5294 91.7697 68.5619 91.6747 68.6304L89.4674 69.9036C89.3339 69.9815 89.2644 70.0649 89.3117 70.0927C89.4282 70.1034 89.5446 70.0718 89.6397 70.0037Z" fill="#455A64"/>
<path d="M88.6788 69.4433L90.8889 68.1701C91.0224 68.0922 91.0919 68.0088 91.0418 67.981C90.9918 67.9532 90.8472 67.981 90.7138 68.07L88.5037 69.346C88.373 69.4211 88.3035 69.5045 88.3508 69.5323C88.4674 69.5443 88.5843 69.5126 88.6788 69.4433Z" fill="#455A64"/>
<path d="M87.7101 68.8742L89.9202 67.601C90.0537 67.5231 90.1204 67.4397 90.0731 67.4119C89.9564 67.4027 89.8401 67.4352 89.7451 67.5037L87.535 68.7769C87.4016 68.8548 87.3348 68.9382 87.3821 68.966C87.4988 68.9752 87.6151 68.9427 87.7101 68.8742Z" fill="#455A64"/>
<path d="M86.7349 68.3186L88.945 67.0426C89.0785 66.9675 89.1452 66.8841 89.0979 66.8563C89.0507 66.8285 88.9033 66.8702 88.7699 66.9453L86.5598 68.2213C86.4263 68.2964 86.3568 68.3798 86.4069 68.4076C86.4569 68.4354 86.6126 68.4048 86.7349 68.3186Z" fill="#455A64"/>
<path d="M85.7818 67.7626L87.9919 66.4894C88.1226 66.4116 88.1921 66.3282 88.1448 66.3004C88.028 66.2912 87.9118 66.3237 87.8168 66.3921L85.6067 67.6653C85.4732 67.7432 85.4037 67.8266 85.4538 67.8544C85.5705 67.8636 85.6868 67.8311 85.7818 67.7626Z" fill="#455A64"/>
<path d="M84.8133 67.2071L87.0373 65.9311C87.1708 65.856 87.2403 65.7698 87.193 65.7448C87.0764 65.7325 86.9594 65.7642 86.865 65.8338L84.6549 67.107C84.5214 67.1848 84.4519 67.2682 84.4992 67.296C84.6111 67.3037 84.7221 67.2722 84.8133 67.2071Z" fill="#455A64"/>
<path d="M83.8507 66.6506L86.0608 65.3774C86.1942 65.2995 86.2637 65.2161 86.2137 65.1883C86.1636 65.1605 86.0191 65.2022 85.8884 65.2773L83.6783 66.5589C83.5449 66.6339 83.4754 66.7201 83.5226 66.7479C83.6401 66.7558 83.7565 66.7213 83.8507 66.6506Z" fill="#455A64"/>
<path d="M82.8859 66.0937L85.1099 64.8177C85.2433 64.7426 85.3128 64.6564 85.2628 64.6314C85.1462 64.6194 85.0292 64.6511 84.9347 64.7204L82.7107 65.9936C82.5801 66.0715 82.5106 66.1549 82.5578 66.1827C82.6051 66.2105 82.7524 66.1743 82.8859 66.0937Z" fill="#455A64"/>
<path d="M81.9213 65.5373L84.1314 64.2641C84.2649 64.1863 84.3316 64.1029 84.2843 64.0751C84.2371 64.0473 84.0897 64.089 83.9563 64.164L81.7462 65.44C81.6127 65.5151 81.546 65.6013 81.5933 65.6263C81.7099 65.6384 81.8268 65.6066 81.9213 65.5373Z" fill="#455A64"/>
<path d="M80.9554 64.9824L83.1794 63.7063C83.3128 63.6313 83.3796 63.5451 83.3323 63.5201C83.2157 63.508 83.0988 63.5397 83.0043 63.609L80.7942 64.8823C80.6607 64.9601 80.5912 65.0435 80.6413 65.0713C80.6913 65.0991 80.822 65.0602 80.9554 64.9824Z" fill="#455A64"/>
<path d="M79.9888 64.4257L82.1989 63.1525C82.3296 63.0747 82.3991 62.9913 82.3518 62.9635C82.3046 62.9357 82.1572 62.9635 82.0238 63.0524L79.8137 64.3284C79.6802 64.4035 79.6108 64.4897 79.6608 64.5147C79.7774 64.5268 79.8943 64.4951 79.9888 64.4257Z" fill="#455A64"/>
<path d="M79.0226 63.871L81.2326 62.5949C81.3661 62.5199 81.4356 62.4337 81.3883 62.4059C81.2715 62.3965 81.1552 62.429 81.0603 62.4976L78.8502 63.7709C78.7168 63.8487 78.6472 63.9321 78.6945 63.9599C78.811 63.9709 78.9276 63.9393 79.0226 63.871Z" fill="#455A64"/>
</g>
<rect x="0.5" y="0.5" width="138" height="138" rx="69" stroke="#008753"/>
<defs>
<clipPath id="clip0_55_5141">
<rect width="139" height="139" rx="69.5" fill="white"/>
</clipPath>
</defs>
</svg>
