<svg width="141" height="201" viewBox="0 0 141 201" fill="none" xmlns="http://www.w3.org/2000/svg">
<g clip-path="url(#clip0_83_6854)">
<g filter="url(#filter0_f_83_6854)">
<path d="M54.9853 183.691C63.9523 186.138 72.3672 183.924 73.7806 178.745C75.1939 173.566 69.0704 167.384 60.1034 164.937C51.1364 162.49 42.7215 164.704 41.3081 169.883C39.8948 175.062 46.0182 181.244 54.9853 183.691Z" fill="black" fill-opacity="0.1"/>
</g>
<path d="M82.8193 124.314C81.6591 123.153 76.7844 118.225 75.127 116.55C74.7969 116.221 74.5904 116.01 74.575 115.99C73.7454 115.177 72.6488 114.694 71.4893 114.629C70.4969 114.564 69.5006 114.669 68.5437 114.94C68.3876 114.98 68.2275 115.035 68.0735 115.086C65.4668 115.883 62.9537 117.571 60.5326 120.175C58.104 122.693 56.3304 125.769 55.3674 129.132C54.4951 132.328 54.7351 134.804 56.0876 136.558C56.2251 136.734 56.3734 136.901 56.5317 137.058C57.8808 138.4 64.6216 145.226 64.7725 145.376L64.8159 145.388C64.6483 145.226 64.4931 145.052 64.3516 144.867C62.9951 143.115 62.7546 140.641 63.6301 137.445C64.593 134.082 66.3666 131.007 68.7953 128.489C71.3547 125.732 74.0239 123.985 76.8028 123.247C79.4458 122.552 81.464 122.918 82.8574 124.345L82.8193 124.314Z" fill="#008753"/>
<path opacity="0.4" d="M82.8545 124.355C81.4584 122.937 79.4407 122.57 76.8012 123.252C74.2216 123.93 71.7298 125.496 69.3257 127.95L61.0735 119.598C63.3266 117.305 65.6599 115.801 68.0736 115.066C68.2263 115.019 68.3877 114.96 68.5438 114.919C69.5 114.647 70.4964 114.544 71.4881 114.614C72.6482 114.675 73.7457 115.159 74.5738 115.974L75.1258 116.534C76.7845 118.205 81.6592 123.132 82.8194 124.294L82.8545 124.355Z" fill="black"/>
<path opacity="0.3" d="M64.8192 145.373L64.7758 145.361C64.625 145.211 57.8697 138.381 56.5351 137.043C56.3767 136.886 56.2284 136.719 56.0909 136.543C54.7376 134.792 54.4971 132.318 55.3695 129.122C56.3313 125.758 58.105 122.682 60.5347 120.165C60.7123 119.97 60.8934 119.781 61.0768 119.603L69.3294 127.935C69.1509 128.114 68.9697 128.303 68.7934 128.494C66.3647 131.011 64.5911 134.087 63.6282 137.45C62.7559 140.646 62.9964 143.12 64.3497 144.871C64.4936 145.05 64.6506 145.217 64.8192 145.373Z" fill="black"/>
<path d="M101.135 40.3748C106.641 38.9233 111.009 38.8593 114.238 40.1827C115.553 40.7162 116.747 41.511 117.746 42.5189C117.718 42.4923 117.691 42.4642 117.666 42.4347C116.694 41.475 110.866 35.5982 109.537 34.2355C108.523 33.2007 107.305 32.3881 105.959 31.8493C102.727 30.5282 98.3578 30.5901 92.8531 32.0352C84.2924 34.284 76.632 38.9311 69.8719 45.9765C63.1118 53.022 58.5799 60.8604 56.2762 69.4917L64.5287 77.8234C66.8149 69.1804 71.3473 61.3404 78.1258 54.3034C84.9043 47.2664 92.5739 42.6236 101.135 40.3748Z" fill="#008753"/>
<path opacity="0.2" d="M117.684 42.4449C116.693 41.4748 115.522 40.7065 114.238 40.1828C111.012 38.8603 106.645 38.9243 101.135 40.3749C92.5751 42.6205 84.9147 47.2676 78.1537 54.3163C77.8722 54.6074 77.5941 54.9047 77.3221 55.1984L69.0481 46.8505C69.32 46.5568 69.5981 46.2595 69.8797 45.9683C76.6573 38.9346 84.3177 34.2875 92.8609 32.027C98.3729 30.5805 102.742 30.5185 105.967 31.8411C107.312 32.3816 108.53 33.1958 109.544 34.2321C110.884 35.6084 116.711 41.4901 117.684 42.4449Z" fill="black"/>
<path opacity="0.3" d="M77.3007 55.1819C70.9824 61.9886 66.7277 69.5329 64.5366 77.8149L56.284 69.4832C58.4792 61.1989 62.7339 53.6546 69.0481 46.8503L77.3007 55.1819Z" fill="black"/>
<path d="M103.416 58.2255C101.895 56.7947 99.4196 56.5164 95.9884 57.3906C95.4056 59.131 94.5657 60.7746 93.4967 62.2666C92.208 64.0641 88.9211 67.6001 83.636 72.8747C78.1642 78.3265 73.7978 83.7671 70.5365 89.1968C67.3092 94.5554 64.8359 100.333 63.1865 106.367L62.4147 109.386L68.047 115.069L70.6721 117.719L71.4404 114.694L71.451 114.656C73.1032 108.643 75.5708 102.886 78.7852 97.5429C82.0464 92.1133 86.4141 86.6747 91.8881 81.227C97.1701 75.9515 100.456 72.4134 101.745 70.6128C103.028 68.8346 103.979 66.8401 104.555 64.7247C105.34 61.8466 104.96 59.6802 103.416 58.2255Z" fill="#008753"/>
<path opacity="0.3" d="M100.194 72.5166C98.4598 74.5171 95.6928 77.4142 91.8933 81.2077C86.4152 86.6577 82.0471 92.0979 78.7891 97.5284C75.5718 102.875 73.1027 108.638 71.4509 114.656L71.4299 114.733L70.6615 117.757L68.0352 115.112L62.4028 109.429L63.176 106.406C64.8257 100.372 67.299 94.5941 70.526 89.2353C73.7872 83.8057 78.1537 78.365 83.6254 72.9133C87.4266 69.1133 90.1964 66.2188 91.9348 64.2296L100.194 72.5166Z" fill="black"/>
<path opacity="0.4" d="M104.555 64.7245C103.98 66.833 103.032 68.8212 101.755 70.5947C101.394 71.1024 100.872 71.7426 100.194 72.5165L91.9452 64.1909C92.6168 63.4137 93.1372 62.7731 93.5062 62.2691C94.5752 60.7771 95.415 59.1336 95.9979 57.3931C99.4291 56.519 101.905 56.7973 103.425 58.228C104.945 59.6587 105.322 61.8242 104.555 64.7245Z" fill="black"/>
<path d="M79.8862 73.7739L64.5357 77.815C66.8219 69.172 71.3542 61.332 78.1327 54.2951C84.9112 47.2581 92.5717 42.611 101.114 40.3537C106.62 38.9022 110.988 38.8382 114.217 40.1616C117.446 41.4851 119.62 44.0462 120.739 47.8449C121.862 51.6445 121.76 55.9738 120.434 60.8328C119.644 63.6483 118.554 66.3707 117.181 68.9529C115.531 72.0395 113.636 74.9887 111.514 77.7721C110.146 79.5961 107.175 82.8418 102.601 87.509C98.2333 91.9558 95.4193 95.0249 94.1595 96.7162C92.7214 98.7395 91.476 100.893 90.4397 103.149C88.892 106.521 87.5954 110.002 86.5605 113.565L70.6855 117.743L71.4539 114.718C73.1036 108.684 75.5769 102.907 78.8039 97.5477C82.0651 92.1181 86.4327 86.6795 91.9068 81.2318C97.1887 75.9563 100.474 72.4183 101.764 70.6176C103.04 68.8364 103.985 66.8402 104.554 64.7242C105.344 61.8301 104.966 59.6641 103.42 58.2264C101.874 56.7886 99.3444 56.5233 95.8317 57.4305C92.2356 58.3771 88.9526 60.3731 85.9826 63.4187C83.1052 66.2976 81.0074 69.8611 79.8862 73.7739Z" fill="#008753"/>
<path d="M76.7693 123.275C79.6182 122.521 81.7422 123.006 83.1414 124.728C84.5406 126.451 84.8044 128.909 83.933 132.102C82.9544 135.481 81.1599 138.567 78.7077 141.088C76.0998 143.884 73.3869 145.652 70.569 146.393C67.7512 147.134 65.6677 146.627 64.3185 144.874C62.9652 143.122 62.7252 140.647 63.5984 137.447C64.5613 134.084 66.3349 131.009 68.7636 128.491C71.3277 125.742 73.9963 124.003 76.7693 123.275Z" fill="#008753"/>
</g>
<defs>
<filter id="filter0_f_83_6854" x="37.1053" y="159.94" width="40.8781" height="28.7474" filterUnits="userSpaceOnUse" color-interpolation-filters="sRGB">
<feFlood flood-opacity="0" result="BackgroundImageFix"/>
<feBlend mode="normal" in="SourceGraphic" in2="BackgroundImageFix" result="shape"/>
<feGaussianBlur stdDeviation="2" result="effect1_foregroundBlur_83_6854"/>
</filter>
<clipPath id="clip0_83_6854">
<rect width="96.0849" height="180.899" fill="white" transform="translate(47.9248 0.950195) rotate(15.2648)"/>
</clipPath>
</defs>
</svg>
