<svg width="210" height="282" viewBox="0 0 210 282" fill="none" xmlns="http://www.w3.org/2000/svg">
<g filter="url(#filter0_f_233_4254)">
<path d="M59.8749 261.653C73.8173 261.653 85.1199 255.125 85.1199 247.073C85.1199 239.021 73.8173 232.493 59.8749 232.493C45.9325 232.493 34.6299 239.021 34.6299 247.073C34.6299 255.125 45.9325 261.653 59.8749 261.653Z" fill="black" fill-opacity="0.1"/>
</g>
<path d="M76.7053 164.739C74.5678 163.517 65.5678 158.312 62.5078 156.542C61.9003 156.197 61.5178 155.972 61.4878 155.949C59.9664 155.101 58.1886 154.835 56.4853 155.199C55.0232 155.496 53.6229 156.041 52.3453 156.812C52.1353 156.932 51.9253 157.074 51.7228 157.209C48.2653 159.392 45.2953 162.827 42.8203 167.552C40.3002 172.154 38.9481 177.305 38.8828 182.552C38.8828 187.522 40.2078 191.009 42.8578 193.014C43.1261 193.214 43.4067 193.397 43.6978 193.562C46.1803 194.972 58.6303 202.187 58.9078 202.344H58.9753C58.669 202.176 58.3757 201.986 58.0978 201.774C55.4428 199.774 54.1178 196.289 54.1228 191.319C54.1881 186.072 55.5402 180.922 58.0603 176.319C60.6753 171.319 63.8478 167.737 67.5778 165.572C71.1278 163.522 74.1928 163.254 76.7728 164.769L76.7053 164.739Z" fill="#008753"/>
<path opacity="0.4" d="M76.7735 164.784C74.1935 163.284 71.1285 163.549 67.5785 165.579C64.1135 167.579 61.126 170.829 58.616 175.329L43.376 166.501C45.731 162.294 48.5135 159.196 51.716 157.179C51.9185 157.051 52.1285 156.901 52.3385 156.781C53.6148 156.01 55.0157 155.467 56.4785 155.176C58.1816 154.808 59.9609 155.074 61.481 155.926L62.501 156.519C65.561 158.281 74.561 163.486 76.6985 164.709L76.7735 164.784Z" fill="black"/>
<path opacity="0.3" d="M58.9753 202.321H58.9078C58.6303 202.164 46.1578 194.949 43.6978 193.539C43.4067 193.374 43.1261 193.191 42.8578 192.991C40.2078 190.991 38.8828 187.506 38.8828 182.536C38.9463 177.289 40.2984 172.138 42.8203 167.536C43.0003 167.184 43.1878 166.839 43.3828 166.509L58.6153 175.306C58.4278 175.636 58.2403 175.981 58.0603 176.326C55.5402 180.929 54.1881 186.079 54.1228 191.326C54.1228 196.296 55.4478 199.781 58.0978 201.781C58.3767 201.983 58.6699 202.163 58.9753 202.321Z" fill="black"/>
<path d="M70.0607 36.0389C77.4557 31.7639 83.7507 29.9464 88.9457 30.5864C91.06 30.839 93.1011 31.5176 94.9457 32.5814C94.8941 32.5542 94.844 32.5241 94.7957 32.4914C93.0107 31.4864 82.2557 25.2839 79.7957 23.8364C77.9191 22.7396 75.835 22.0449 73.6757 21.7964C68.4757 21.1614 62.1782 22.9764 54.7832 27.2414C43.2832 33.8764 34.0332 43.6264 27.0332 56.4914C20.0332 69.3564 16.5707 82.4889 16.6457 95.8889L31.8782 104.686C31.7732 91.2764 35.2357 78.1414 42.2657 65.2814C49.2957 52.4214 58.5607 42.6739 70.0607 36.0389Z" fill="#008753"/>
<path opacity="0.2" d="M94.8257 32.4989C93.0081 31.4865 91.0111 30.8369 88.9457 30.5864C83.7557 29.9464 77.4607 31.7639 70.0607 36.0389C58.5607 42.6689 49.3107 52.4189 42.3107 65.2889C42.0182 65.8214 41.7332 66.3614 41.4557 66.8939L26.1857 58.0814C26.4632 57.5489 26.7482 57.0089 27.0407 56.4764C34.0707 43.6214 43.3207 33.8714 54.7907 27.2264C62.1957 22.9564 68.4932 21.1414 73.6832 21.7814C75.843 22.0324 77.9271 22.7297 79.8032 23.8289C82.2857 25.2914 93.0407 31.5014 94.8257 32.4989Z" fill="black"/>
<path opacity="0.3" d="M41.4184 66.8786C34.9634 79.2236 31.7859 91.8211 31.8859 104.671L16.6534 95.8736C16.5584 83.0186 19.7359 70.4211 26.1859 58.0811L41.4184 66.8786Z" fill="black"/>
<path d="M80.4115 60.9693C77.6465 59.4993 73.954 60.0743 69.334 62.6943C69.1779 65.443 68.6116 68.153 67.654 70.7343C66.499 73.8443 63.139 80.2593 57.574 89.9793C51.809 100.029 47.639 109.627 45.064 118.772C42.51 127.801 41.2128 137.139 41.209 146.522L41.284 151.194L51.679 157.194L56.524 159.992L56.4415 155.312V155.252C56.458 145.899 57.755 136.593 60.2965 127.592C62.8715 118.447 67.044 108.852 72.814 98.8068C78.374 89.0868 81.7315 82.6693 82.8865 79.5543C84.0399 76.4747 84.6293 73.2127 84.6265 69.9243C84.6265 65.4493 83.2215 62.4643 80.4115 60.9693Z" fill="#008753"/>
<path opacity="0.3" d="M81.394 82.9214C79.674 86.5014 76.814 91.7864 72.814 98.7764C67.039 108.826 62.8665 118.424 60.2965 127.569C57.7524 136.577 56.4553 145.891 56.4415 155.251V155.371L56.524 160.051L51.679 157.261L41.284 151.261L41.209 146.581C41.2134 137.198 42.5106 127.86 45.064 118.831C47.639 109.686 51.809 100.089 57.574 90.0389C61.574 83.0389 64.439 77.7564 66.169 74.1914L81.394 82.9214Z" fill="black"/>
<path opacity="0.4" d="M84.6255 69.9243C84.6271 73.2022 84.0402 76.4537 82.893 79.5243C82.5705 80.4018 82.068 81.5343 81.393 82.9218L66.168 74.1318C66.833 72.7418 67.333 71.6093 67.668 70.7343C68.6256 68.153 69.1919 65.443 69.348 62.6943C73.968 60.0743 77.6605 59.4993 80.4255 60.9693C83.1905 62.4393 84.5905 65.4243 84.6255 69.9243Z" fill="black"/>
<path d="M52.5036 92.761L31.8861 104.671C31.7811 91.261 35.2436 78.126 42.2736 65.266C49.3036 52.406 58.5536 42.656 70.0236 36.016C77.4186 31.741 83.7136 29.9235 88.9086 30.5635C94.1036 31.2035 98.2611 34.051 101.381 39.106C104.506 44.161 106.069 50.466 106.069 58.021C106.038 62.4072 105.535 66.7774 104.569 71.056C103.4 76.1741 101.822 81.1902 99.8511 86.056C98.5911 89.236 95.5736 95.106 90.7986 103.666C86.2336 111.826 83.3736 117.378 82.2186 120.323C80.9366 123.819 79.9849 127.428 79.3761 131.101C78.4681 136.592 77.9667 142.142 77.8761 147.706L56.5536 160.021L56.4711 155.341C56.4755 145.958 57.7727 136.62 60.3261 127.591C62.9011 118.446 67.0736 108.851 72.8436 98.806C78.4036 89.086 81.7611 82.6685 82.9161 79.5535C84.0593 76.4721 84.6385 73.2101 84.6261 69.9235C84.6261 65.4235 83.2236 62.4385 80.4186 60.9685C77.6136 59.4985 73.8486 60.1135 69.1236 62.8135C64.2936 65.6035 60.3311 69.7885 57.2361 75.3685C54.2093 80.6709 52.5807 86.656 52.5036 92.761Z" fill="#008753"/>
<path d="M67.5406 165.625C71.3656 163.41 74.6306 163.272 77.3356 165.212C80.0406 167.152 81.3931 170.605 81.3931 175.57C81.3113 180.845 79.9333 186.02 77.3806 190.637C74.7106 195.712 71.4831 199.342 67.6981 201.527C63.9131 203.712 60.6981 203.802 58.0531 201.797C55.4031 199.797 54.0781 196.31 54.0781 191.335C54.1434 186.088 55.4955 180.937 58.0156 176.335C60.6406 171.345 63.8156 167.775 67.5406 165.625Z" fill="#008753"/>
<g filter="url(#filter1_f_233_4254)">
<path d="M125.813 131.346C130.296 132.569 134.504 131.462 135.211 128.872C135.917 126.283 132.856 123.192 128.372 121.968C123.889 120.745 119.681 121.852 118.974 124.441C118.268 127.031 121.329 130.122 125.813 131.346Z" fill="black" fill-opacity="0.1"/>
</g>
<path d="M139.729 101.656C139.149 101.075 136.712 98.6117 135.883 97.774C135.718 97.6098 135.615 97.5038 135.607 97.494C135.193 97.0877 134.644 96.846 134.064 96.8138C133.568 96.7809 133.07 96.8334 132.592 96.969C132.514 96.9891 132.434 97.0165 132.357 97.0422C131.053 97.4406 129.797 98.2845 128.586 99.5868C127.372 100.846 126.485 102.383 126.004 104.065C125.567 105.663 125.687 106.901 126.364 107.778C126.432 107.866 126.507 107.949 126.586 108.028C127.26 108.699 130.631 112.112 130.706 112.187L130.728 112.193C130.644 112.112 130.566 112.025 130.496 111.933C129.817 111.056 129.697 109.819 130.135 108.222C130.616 106.54 131.503 105.002 132.717 103.744C133.997 102.365 135.332 101.492 136.721 101.123C138.043 100.775 139.052 100.958 139.749 101.672L139.729 101.656Z" fill="#008753"/>
<path opacity="0.4" d="M139.747 101.676C139.049 100.967 138.04 100.783 136.72 101.125C135.43 101.464 134.184 102.247 132.982 103.474L128.856 99.2974C129.983 98.151 131.149 97.3991 132.356 97.0314C132.433 97.0082 132.513 96.9784 132.591 96.9582C133.069 96.8222 133.568 96.7705 134.063 96.8054C134.644 96.8363 135.192 97.0782 135.606 97.4856L135.882 97.7657C136.712 98.601 139.149 101.065 139.729 101.645L139.747 101.676Z" fill="black"/>
<path opacity="0.3" d="M130.729 112.185L130.708 112.179C130.632 112.104 127.255 108.689 126.587 108.02C126.508 107.941 126.434 107.858 126.365 107.77C125.689 106.894 125.568 105.658 126.005 104.059C126.485 102.378 127.372 100.84 128.587 99.5812C128.676 99.4837 128.767 99.3892 128.858 99.3002L132.985 103.466C132.895 103.556 132.805 103.65 132.717 103.745C131.502 105.004 130.615 106.542 130.134 108.223C129.698 109.822 129.818 111.059 130.495 111.934C130.567 112.023 130.645 112.107 130.729 112.185Z" fill="black"/>
<path d="M148.886 59.6864C151.639 58.9607 153.823 58.9287 155.438 59.5904C156.095 59.8572 156.692 60.2545 157.192 60.7585C157.178 60.7452 157.164 60.7311 157.152 60.7164C156.666 60.2365 153.752 57.2981 153.088 56.6168C152.58 56.0994 151.971 55.6931 151.299 55.4237C149.682 54.7631 147.498 54.7941 144.745 55.5166C140.465 56.641 136.635 58.9646 133.255 62.4873C129.875 66.01 127.609 69.9292 126.457 74.2449L130.583 78.4107C131.726 74.0892 133.992 70.1692 137.382 66.6507C140.771 63.1323 144.606 60.8108 148.886 59.6864Z" fill="#008753"/>
<path opacity="0.2" d="M157.161 60.7215C156.666 60.2364 156.08 59.8523 155.438 59.5904C153.825 58.9292 151.642 58.9612 148.887 59.6865C144.607 60.8093 140.777 63.1328 137.396 66.6572C137.255 66.8027 137.116 66.9514 136.98 67.0982L132.843 62.9243C132.979 62.7774 133.118 62.6288 133.259 62.4832C136.648 58.9663 140.478 56.6428 144.75 55.5125C147.506 54.7893 149.69 54.7583 151.303 55.4196C151.976 55.6898 152.584 56.097 153.091 56.6151C153.761 57.3032 156.675 60.2441 157.161 60.7215Z" fill="black"/>
<path opacity="0.3" d="M136.97 67.0895C133.811 70.4928 131.683 74.265 130.588 78.406L126.461 74.2402C127.559 70.098 129.686 66.3258 132.843 62.9237L136.97 67.0895Z" fill="black"/>
<path d="M150.027 68.6113C149.267 67.8959 148.029 67.7568 146.314 68.1938C146.022 69.0641 145.602 69.8858 145.068 70.6318C144.423 71.5306 142.78 73.2986 140.137 75.9359C137.401 78.6618 135.218 81.3821 133.588 84.0969C131.974 86.7762 130.737 89.6652 129.913 92.6823L129.527 94.1914L132.343 97.0331L133.655 98.3579L134.04 96.8457L134.045 96.8264C134.871 93.8203 136.105 90.9414 137.712 88.27C139.343 85.5552 141.526 82.8359 144.263 80.1121C146.904 77.4743 148.547 75.7053 149.192 74.8049C149.833 73.9158 150.309 72.9186 150.597 71.8609C150.989 70.4218 150.8 69.3386 150.027 68.6113Z" fill="#008753"/>
<path opacity="0.3" d="M148.417 75.7568C147.55 76.7571 146.166 78.2056 144.266 80.1024C141.527 82.8274 139.343 85.5475 137.714 88.2628C136.106 90.9362 134.871 93.8176 134.045 96.8264L134.035 96.865L133.651 98.3772L132.337 97.0548L129.521 94.2131L129.908 92.7015C130.733 89.6846 131.969 86.7956 133.583 84.1162C135.213 81.4014 137.397 78.6811 140.133 75.9552C142.033 74.0552 143.418 72.6079 144.287 71.6133L148.417 75.7568Z" fill="black"/>
<path opacity="0.4" d="M150.597 71.8608C150.309 72.915 149.835 73.9092 149.197 74.7959C149.016 75.0498 148.755 75.3698 148.416 75.7568L144.292 71.594C144.628 71.2054 144.888 70.8851 145.072 70.6331C145.607 69.8871 146.027 69.0653 146.318 68.1951C148.034 67.758 149.272 67.8972 150.032 68.6125C150.792 69.3279 150.98 70.4107 150.597 71.8608Z" fill="black"/>
<path d="M138.263 76.385L130.588 78.4056C131.731 74.0841 133.997 70.1641 137.386 66.6456C140.775 63.1271 144.606 60.8035 148.877 59.6749C151.63 58.9492 153.814 58.9172 155.428 59.5789C157.043 60.2406 158.13 61.5211 158.689 63.4205C159.251 65.3203 159.2 67.4849 158.537 69.9144C158.142 71.3222 157.597 72.6834 156.91 73.9745C156.085 75.5178 155.138 76.9924 154.077 78.3841C153.393 79.2961 151.907 80.9189 149.621 83.2526C147.436 85.476 146.029 87.0105 145.4 87.8562C144.681 88.8678 144.058 89.9446 143.54 91.0725C142.766 92.7584 142.118 94.4992 141.6 96.2806L133.663 98.3695L134.047 96.8573C134.872 93.8403 136.108 90.9513 137.722 88.2719C139.352 85.5571 141.536 82.8378 144.273 80.114C146.914 77.4762 148.557 75.7072 149.202 74.8069C149.84 73.9163 150.312 72.9181 150.597 71.8602C150.992 70.4131 150.803 69.3301 150.03 68.6112C149.257 67.8924 147.992 67.7597 146.236 68.2133C144.438 68.6866 142.796 69.6846 141.311 71.2074C139.872 72.6469 138.824 74.4286 138.263 76.385Z" fill="#008753"/>
<path d="M136.704 101.136C138.128 100.759 139.19 101.002 139.89 101.863C140.59 102.724 140.722 103.953 140.286 105.55C139.797 107.239 138.899 108.782 137.673 110.043C136.369 111.44 135.013 112.324 133.604 112.695C132.195 113.065 131.153 112.812 130.479 111.935C129.802 111.06 129.682 109.822 130.119 108.222C130.6 106.54 131.487 105.003 132.701 103.744C133.983 102.37 135.317 101.5 136.704 101.136Z" fill="#008753"/>
<defs>
<filter id="filter0_f_233_4254" x="30.6299" y="228.493" width="58.49" height="37.16" filterUnits="userSpaceOnUse" color-interpolation-filters="sRGB">
<feFlood flood-opacity="0" result="BackgroundImageFix"/>
<feBlend mode="normal" in="SourceGraphic" in2="BackgroundImageFix" result="shape"/>
<feGaussianBlur stdDeviation="2" result="effect1_foregroundBlur_233_4254"/>
</filter>
<filter id="filter1_f_233_4254" x="114.873" y="117.47" width="24.4391" height="18.3737" filterUnits="userSpaceOnUse" color-interpolation-filters="sRGB">
<feFlood flood-opacity="0" result="BackgroundImageFix"/>
<feBlend mode="normal" in="SourceGraphic" in2="BackgroundImageFix" result="shape"/>
<feGaussianBlur stdDeviation="2" result="effect1_foregroundBlur_233_4254"/>
</filter>
</defs>
</svg>
